<?xml version="1.0" encoding="UTF-8"?>
<svg xmlns="http://www.w3.org/2000/svg" xmlns:xlink="http://www.w3.org/1999/xlink" width="200px" height="200px" viewBox="0 0 200 200" version="1.1">
<g id="surface1">
<path style=" stroke:none;fill-rule:nonzero;fill:rgb(100%,100%,100%);fill-opacity:1;" d="M 162.054688 48.886719 C 159.53125 48.886719 157.015625 49.136719 154.542969 49.636719 C 152.675781 40.332031 146.648438 32.390625 138.1875 28.09375 C 129.722656 23.800781 119.757812 23.617188 111.144531 27.605469 C 103.347656 6.132812 79.625 -4.953125 58.152344 2.84375 C 36.679688 10.636719 25.59375 34.363281 33.386719 55.835938 C 14.578125 56.429688 -0.277344 72 0.00390625 90.8125 C 0.285156 109.628906 15.605469 124.746094 34.425781 124.773438 L 162.054688 124.773438 C 183.011719 124.773438 200 107.785156 200 86.832031 C 200 65.875 183.011719 48.886719 162.054688 48.886719 Z M 162.054688 48.886719 "/>
</g>
</svg>
